<?xml version="1.0"?>
<svg xmlns="http://www.w3.org/2000/svg" width="698" height="438" viewBox="0 0 698 438"> <g fill="none" fill-rule="evenodd"> <path stroke="#749F27" stroke-width="3" d="M253 435.01L3 2h500zM38 63h429.56M74 125h357.83M110 188h285.22M146 250h213.05M182 313h140.88M218 375h69.52"></path> <path stroke="#749F27" d="M469 63h234.29" stroke-dasharray="12.01486588 12.01486588"></path> <path stroke="#749F27" d="M433 125h265.45" stroke-dasharray="12.34658813 12.34658813"></path> <path stroke="#749F27" d="M396 188h302.28" stroke-dasharray="11.85396099 11.85396099"></path> <path stroke="#749F27" d="M361 250h337.72" stroke-dasharray="12.28077221 12.28077221"></path> <path stroke="#749F27" d="M324 313h374.4" stroke-dasharray="11.88569164 11.88569164"></path> <path stroke="#749F27" d="M288 375h409.96" stroke-dasharray="12.23752213 12.23752213"></path> <path stroke="#749F27" d="M504 2h193.9" stroke-dasharray="12.50980377 12.50980377"></path> <text fill="#749F27" font-family="Lato-Heavy, Lato" font-size="24" font-weight="600"> <tspan x="569.772" y="414">UTILITIES</tspan> </text> <text fill="#749F27" font-family="Lato-Heavy, Lato" font-size="24" font-weight="600"> <tspan x="507.144" y="353">COMPONENTS</tspan> </text> <text fill="#749F27" font-family="Lato-Heavy, Lato" font-size="24" font-weight="600"> <tspan x="599.328" y="104">TOOLS</tspan> </text> <text fill="#749F27" font-family="Lato-Heavy, Lato" font-size="24" font-weight="600"> <tspan x="575.82" y="167">GENERIC</tspan> </text> <text fill="#749F27" font-family="Lato-Heavy, Lato" font-size="24" font-weight="600"> <tspan x="555.036" y="229">ELEMENTS</tspan> </text> <text fill="#749F27" font-family="Lato-Heavy, Lato" font-size="24" font-weight="600"> <tspan x="575.352" y="290">OBJECTS</tspan> </text> <text fill="#749F27" font-family="Lato-Heavy, Lato" font-size="24" font-weight="600"> <tspan x="565.56" y="45">SETTINGS</tspan> </text> </g>
</svg>
