<svg id="Capa_1" xmlns="http://www.w3.org/2000/svg" viewBox="0 0 140 140">
	<style>
		.st0{fill:#EA586F;}
		.st1{fill:#151C33;}
		.st2{font-family:&apos;Track&apos;;}
		.st3{font-size:17.05px;}
	</style>
	<g id="XMLID_27_">
		<title>We CodeSign Podcast Logo</title>
		<desc>Logo de We CodeSign - El Podcast de diseño y desarrollo web en castellano</desc>
		<path id="XMLID_40_" class="st0" d="M49.4 45.5v5.3l2.1-.7v9.4l5-1.7V43.2l-7.1 2.3zm-23.7 13l16.4-5.3v-5.3l-16.4 5.3v5.3z"/>
		<path id="XMLID_10_" class="st0" d="M43.3 44.3v16.2l-7 2.2v-6.4l-5 1.6v6.4l-6.8 2.3V38.2l-5-1.6v36.8l28.7-9.3V45.9l-4.9-1.6z"/>
		<path id="XMLID_35_" class="st0" d="M31.3 40.4v9.8l5-1.7V42l-5-1.6zM11.4 97l7-2.3v-5.2l-2 .6V61.5l2-.6v-5.3l-7 2.3V97zm31.7-9.1v10.5l-18.6-6.1V79.8l18.6-6.1v6.5l5-1.6V66.9l-28.6 9.3v19.2l28.6 9.3V86.3l-5 1.6z"/>
		<path id="XMLID_6_" class="st0" d="M51.5 69.3v9.4l-25.8 8.4v4.4l1.3.4 29.5-9.6V67.7l-5 1.6z"/>
		<path id="XMLID_31_" class="st0" d="M65.7 124.5L2.2 103.8V16.1l63.5 20.7v87.7zM7.2 100.2l53.5 17.4V40.4L7.2 23v77.2z"/>
			<text id="XMLID_3_" transform="translate(78.95 63.1)" class="st1 st2 st3">WE</text>
			<text id="XMLID_2_" transform="translate(78.95 83.6)" class="st1 st2 st3">CODE-</text>
			<text id="XMLID_1_" transform="translate(78.95 104)" class="st1 st2 st3">SIGN</text>
	</g>
</svg>