<svg id="Capa_1" xmlns="http://www.w3.org/2000/svg" viewBox="34 -41 140 155">
	<style>
		.st0{display:none;}
		.st1{display:inline;fill:#031735;}
		.st2{fill:#EA576E;}
		.st3{fill:#FFFFFF;}
		.st4{font-family:&apos;Track&apos;;}
		.st5{font-size:17.05px;}
		.st6{font-family:&apos;ArialMT&apos;;}
		.st7{font-size:12px;}
	</style>
	<title>We CodeSign Podcast Logo</title>
	<desc>Logo en color salmón (rosa suave) de We CodeSign - El Podcast de diseño y desarrollo web en castellano</desc>
		<path class="st0 st1" d="M34-41h140v155H34V-41zm210.8 0h182v155h-182V-41z" id="Fondos"/>
		<path class="st2" d="M83.4 11.7V17l2.1-.7v9.4l5-1.7V9.4l-7.1 2.3zm-23.7 13l16.4-5.3v-5.3l-16.4 5.3v5.3z"/>
		<path class="st2" d="M77.3 10.5v16.2l-7 2.2v-6.4l-5 1.6v6.4l-6.8 2.3V4.4l-5-1.6v36.8l28.7-9.3V12.1l-4.9-1.6z"/>
		<path class="st2" d="M65.3 6.6v9.8l5-1.7V8.2l-5-1.6zM45.4 63.2l7-2.3v-5.2l-2 .6V27.7l2-.6v-5.3l-7 2.3v39.1zm31.7-9.1v10.5l-18.6-6.1V46l18.6-6.1v6.5l5-1.6V33.1l-28.6 9.3v19.2l28.6 9.3V52.5l-5 1.6z"/>
		<path class="st2" d="M85.5 35.5v9.4l-25.8 8.4v4.4l1.3.4 29.5-9.6V33.9l-5 1.6z"/>
		<path class="st2" d="M99.7 90.7L36.2 70v-87.7L99.7 3v87.7zM41.2 66.4l53.5 17.4V6.6L41.2-10.8v77.2z"/>
			<text transform="translate(112.953 29.35)" class="st3 st4 st5">WE</text>
			<text transform="translate(140.727 29.35)" class="st6 st7"></text>
			<text transform="translate(112.953 49.85)" class="st3 st4 st5">CODE-</text>
			<text transform="translate(171.81 49.85)" class="st6 st7"></text>
			<text transform="translate(112.953 70.25)" class="st3 st4 st5">SIGN</text>
</svg>