<svg id="Capa_1" xmlns="http://www.w3.org/2000/svg" viewBox="0 0 130 215"><style>.st0{fill:#13354C;} .st1{fill:#F4C2B6;} .st2{opacity:0.33;fill:#9E9D9C;enable-background:new ;} .st3{opacity:0.1;fill:#D78578;enable-background:new ;} .st4{opacity:0.2;fill:#F0D7D3;enable-background:new ;} .st5{opacity:0.5;} .st6{opacity:0.4;fill:#F0D7D3;enable-background:new ;} .st7{opacity:0.1;fill:#F0D7D3;enable-background:new ;} .st8{opacity:0.75;} .st9{opacity:0.1;} .st10{fill:#BB7D74;} .st11{opacity:0.83;} .st12{opacity:0.1;fill:#DFAEA8;enable-background:new ;} .st13{opacity:0.1;fill:#717070;enable-background:new ;} .st14{opacity:3.000000e-002;fill:#1E1E1C;enable-background:new ;} .st15{fill:#E4B2AA;} .st16{opacity:0.6;fill:#BB7D74;enable-background:new ;} .st17{opacity:0.3;fill:url(#XMLID_41_);enable-background:new ;} .st18{opacity:0.8;} .st19{fill:#1E1E1C;} .st20{opacity:0.15;} .st21{fill:url(#XMLID_42_);} .st22{opacity:5.000000e-002;fill:#D78578;enable-background:new ;} .st23{fill:#15411E;} .st24{opacity:0.2;} .st25{fill:#FFFFFF;} .st26{fill:#442A19;} .st27{opacity:0.2;fill:#FFFFFF;enable-background:new ;}</style><path id="XMLID_39_" class="st0" d="M.9 214.5v-23l36.7-21.6h54.5l37 21.3v23.3z"/><path id="XMLID_38_" class="st1" d="M106.6 44.6c-1.3-5.5-.9-24.5-43.3-24.5-42.3 0-42 19-43.3 24.5s-5.5 40.5-5.5 40.5.3 3.4 5 32.2c2.6 15.7 10.7 26.9 18 34V169.5c0 5.9 12.2 10.7 27.1 10.7s27.1-4.8 27.1-10.7V148.3c6.5-7.1 12.9-17.3 15.1-31 4.8-28.8 5-32.2 5-32.2s-4-35-5.2-40.5z"/><path id="XMLID_37_" class="st2" d="M75.9 161.1c-4.3 2-12.5 2-12.5 2s-8.3 0-12.5-2c-1.5-.7-7.2-3.9-13.3-9.8v9.3c6.2 6.1 11.9 9.3 13.5 10 4.3 2 12.5 2 12.5 2s8.3 0 12.5-2c1.8-.8 8.8-4.8 15.9-12.5v-9.8c-7.2 7.9-14.3 11.9-16.1 12.8z"/><path id="XMLID_36_" class="st3" d="M106.6 44.6c-1.1-4.7-1-19.1-26.9-23.3-.5-.1-1-.1-1.4-.2-.5-.1-1-.1-1.5-.2s-1-.1-1.5-.2-1-.1-1.6-.2c-.5 0-1.1-.1-1.6-.1-.6 0-1.1-.1-1.7-.1h-.1c-.6 0-1.1-.1-1.7-.1h-.1c-.6 0-1.2 0-1.8-.1H64.8v160.1h.1c15 0 27.1-4.8 27.1-10.7V148.3c6.5-7.1 12.9-17.3 15.1-31 4.8-28.8 5-32.2 5-32.2s-4.3-35-5.5-40.5z"/><path id="XMLID_35_" class="st4" d="M106.8 105.8c1-8.7 3.4-16 5.8-18.4-.2-3.6-.7-6.7-1.1-9.6-.2-1.4-.4-26.1-.5-28.5L99.5 29.7v54.6c0 3.8-2.1 7-5.1 8.7.1 1.5.1 3.1.1 4.6 0 10.7-1.4 20.8-3.9 29.8 3.2 4.6 5.2 10 5.6 15.8-2.2 3-4.5 5.6-6.8 7.8 7.9-7.2 13.2-17.5 17.5-30.1-.7-3.7-.8-9.1-.1-15.1z"/><g class="st5"><path id="XMLID_34_" class="st6" d="M36.1 127.1c-2.3-8.7-3.6-18.5-3.6-28.9 0-1.6 0-3.1.1-4.6-3-1.7-5.1-5-5.1-8.7V30.3L16 50c-.1 2.3-.3 27-.5 28.5-1.4 8.4-6.1 20.3 1.2 37 4.3 9.9 7 18.1 13.6 27.5.5-5.9 2.6-11.4 5.8-15.9z"/><path id="XMLID_33_" class="st7" d="M33.8 147.3c1.4 1.7 3 3.3 4.6 4.8-1.5-1.5-3.1-3.1-4.6-4.8z"/></g><g class="st8"><g class="st9"><path id="XMLID_32_" class="st10" d="M47.3 50.6s2.2-.7 5.5-1.4c1.7-.3 3.6-.6 5.8-.8l3.3-.3c1.1-.1 2.3-.1 3.4-.1s2.3.1 3.4.1l3.3.3c1.1.1 2.1.3 3.1.4 1 .2 1.9.4 2.7.6.8.2 1.6.5 2.3.7.7.2 1.2.5 1.7.6.9.4 1.4.6 1.4.6s-.6-.1-1.6-.2c-.5-.1-1.1-.2-1.8-.2-.7-.1-1.5-.1-2.3-.2-.8 0-1.7-.1-2.7-.2-1-.1-2-.1-3-.1s-2.1 0-3.2-.1H62c-1.1 0-2.2 0-3.2.1-2.1 0-4.1.1-5.8.1-3.4.1-5.7.1-5.7.1z"/></g><g class="st9"><path id="XMLID_31_" class="st10" d="M47.3 46.1s2.2-.7 5.5-1.4c1.7-.3 3.6-.6 5.8-.8l3.3-.3c1.1-.1 2.3-.1 3.4-.1s2.3.1 3.4.1l3.3.3c1.1.1 2.1.3 3.1.4 1 .2 1.9.4 2.7.6.8.2 1.6.5 2.3.7.7.2 1.2.5 1.7.6.9.4 1.4.6 1.4.6s-.6-.1-1.6-.2c-.5-.1-1.1-.2-1.8-.2-.7-.1-1.5-.1-2.3-.2-.8 0-1.7-.1-2.7-.2-1-.1-2-.1-3-.1s-2.1 0-3.2-.1H62c-1.1 0-2.2 0-3.2.1-2.2.1-4.1.1-5.8.1-3.4.1-5.7.1-5.7.1z"/></g></g><g class="st11"><path id="XMLID_30_" class="st12" d="M34.8 129.5c-.8-2.6-1.8-5.2-3-7.9-3.9-8.7-9.2-15.8-14.5-20 0 5.4 1.4 18.4 4.4 25.4 2.9 6.7 5.6 11.4 8.9 16 .4-4.9 1.9-9.5 4.2-13.5z"/><path id="XMLID_29_" class="st13" d="M32.9 146.1c1.1 1.5 2.3 3 3.6 4.6 0-.2.1-.4.1-.6-1.3-1.1-2.5-2.5-3.7-4z"/></g><g class="st5"><path id="XMLID_28_" class="st13" d="M91.6 129.5c.8-2.6 1.8-5.2 3-7.9 3.9-8.7 9.2-15.8 14.5-20 0 5.4-1.4 18.4-4.4 25.4-2.9 6.7-5.6 11.4-8.9 16-.3-4.9-1.8-9.5-4.2-13.5z"/></g><path id="XMLID_27_" class="st14" d="M96.2 143.2c-1.2-16.7-15.4-29.9-32.8-29.9s-31.6 13.2-32.8 29.9c8.3 11.2 18.2 16.9 20.3 17.9 4.3 2 12.5 2 12.5 2s8.3 0 12.5-2c2.1-1 12-6.7 20.3-17.9z"/><ellipse id="XMLID_26_" transform="rotate(-96.58 14.842 106.39)" class="st1" cx="14.8" cy="106.4" rx="19.9" ry="5.3"/><ellipse id="XMLID_25_" transform="rotate(96.58 112.08 106.396)" class="st15" cx="112.1" cy="106.4" rx="19.9" ry="5.3"/><path id="XMLID_24_" class="st10" d="M78.6 127.6c-.2-.2-.4-.1-.6.1 0 .1-.8 1.3-2.2 1.3-1 0-2.4-.3-4-.5-2.6-.4-5.6-.9-7.3-.6-1.6-.4-4.6.1-7.3.6-1.5.3-3 .5-4 .5-1.4.1-2.2-1.2-2.2-1.3-.1-.2-.4-.3-.6-.1-.2.2-.2.5-.1.7 0 .1 1 1.7 2.8 1.7h.1c1 0 2.5-.3 4-.5 2.6-.4 5.6-.9 7.1-.6h.2c1.5-.4 4.4.1 7.1.6 1.5.3 3 .5 4 .5h.1c1.8 0 2.7-1.6 2.8-1.7.3-.2.3-.5.1-.7z"/><path id="XMLID_23_" class="st16" d="M64.4 128.2c3.5 0 6.7.4 9.2 1.1 2-.2 3.5-.4 3.5-.4s-2.5-.7-6.5-3.5c-1.1-.9-3.5-1-4.6 0-.4.4-.9.5-1.5.5s-1.1-.1-1.5-.5c-1.1-1-3.6-.9-4.6 0-4 2.8-6.5 3.5-6.5 3.5s1.5.2 3.5.4c2.3-.7 5.5-1.1 9-1.1z"/><linearGradient id="XMLID_41_" gradientUnits="userSpaceOnUse" x1="64.722" y1="102.728" x2="64.722" y2="141.526" gradientTransform="matrix(1 0 0 -1 0 216)"><stop offset=".234" stop-color="#F4C2B6"/><stop offset=".997" stop-color="#FFF"/></linearGradient><path id="XMLID_22_" class="st17" d="M74.4 103.4c-3.3-2.8-4-7.9-4.5-8.8s-1.3-16.2-2.2-18.4-3-1.7-3-1.7-2.2-.5-3 1.7-1.7 17.5-2.2 18.4-1.1 6-4.5 8.8c-2.6 2.2-2.3 9.9 2.6 9.9h14c5.1 0 5.4-7.8 2.8-9.9z"/><g class="st18"><path id="XMLID_21_" class="st19" d="M62.3 111.6c-.4.2-5.1.3-6.3-.6-1.1-.9-.6-3.6 1.3-3.5 1.9.2 4.4 1.9 4.9 2.4s.6 1.5.1 1.7z"/><path id="XMLID_20_" class="st19" d="M67.1 111.6c.4.2 5.1.3 6.3-.6 1.1-.9.6-3.6-1.3-3.5-1.9.2-4.4 1.9-4.9 2.4s-.5 1.5-.1 1.7z"/></g><g class="st20"><linearGradient id="XMLID_42_" gradientUnits="userSpaceOnUse" x1="61.148" y1="116.091" x2="68.147" y2="116.091" gradientTransform="matrix(1 0 0 -1 0 216)"><stop offset="0" stop-color="#FFF"/><stop offset="1" stop-color="#DE9E8E"/></linearGradient><path id="XMLID_19_" class="st21" d="M64.6 106.9c-1.9 0-3.5-1.6-3.5-3.5l1.4-7.3c0-1.9.2-3.2 2.1-3.2 1.9 0 2.1 1.3 2.1 3.2l1.4 7.3c0 1.9-1.5 3.5-3.5 3.5z"/></g><path id="XMLID_18_" class="st2" d="M73 131.4c-1.3.6-2.4 1.4-3.3 1.9-1.7.9-4.1 1.2-5.4 1.2s-4-.4-5.4-1.2c-.9-.5-2-1.3-3.3-1.9-1.6.9-2.6 2-2.6 3.3 0 2.8 5.1 7.1 11.3 7.1s11.3-4.3 11.3-7.1c0-1.2-1-2.4-2.6-3.3z"/><path id="XMLID_17_" class="st22" d="M33.4 82.8s.3.2.8.6c.3.2.6.4.9.5.4.2.8.4 1.3.6.5.2 1 .4 1.6.5.6.2 1.2.2 1.8.4.6.1 1.3.1 2 .1s1.4 0 2.1-.1c.7-.1 1.4-.1 2-.3.7-.1 1.3-.2 1.9-.4.6-.2 1.2-.3 1.8-.5.6-.2 1.1-.4 1.6-.6 1-.3 1.8-.7 2.3-1 .6-.2.9-.4.9-.4l.1.2s-.2.3-.7.8c-.2.2-.5.5-.9.8-.3.3-.7.7-1.2.9-.5.3-1 .7-1.5 1-.6.3-1.2.6-1.8.8-.6.3-1.4.5-2.1.7-.7.2-1.5.3-2.2.4-.8.1-1.5 0-2.3 0-.4 0-.8-.1-1.1-.1-.4-.1-.7-.1-1.1-.2-.7-.2-1.4-.4-2-.7-.6-.2-1.2-.6-1.7-.9-1-.7-1.6-1.4-2.1-1.9-.2-.3-.3-.5-.4-.7-.1-.2-.1-.3-.1-.3l.1-.2z"/><path id="XMLID_16_" class="st10" d="M33.4 78.3s.8-1.3 2.5-2.8c.4-.4.9-.8 1.5-1.1.5-.4 1.2-.7 1.8-1 .7-.3 1.4-.6 2.1-.8.8-.2 1.5-.4 2.3-.4.4 0 .8-.1 1.2 0 .4 0 .8.1 1.2.1.8 0 1.5.3 2.2.5.7.2 1.3.6 1.9.8.6.3 1.1.7 1.5 1 .5.4.9.6 1.2 1 .3.3.6.6.8.9.4.5.6.8.6.8s-.3-.2-.9-.5c-.3-.1-.6-.3-1-.5s-.9-.4-1.3-.6c-.5-.2-1-.5-1.6-.6l-.9-.3c-.3-.1-.6-.2-.9-.2-.6-.1-1.3-.3-1.9-.3-.3 0-.7 0-1-.1-.3 0-.7.1-1 .1-.7 0-1.3.2-2 .3-.6.2-1.3.3-1.9.5-.6.2-1.2.4-1.8.7-.6.2-1.1.5-1.6.7-.9.5-1.7.9-2.3 1.2-.4.4-.7.6-.7.6z"/><circle id="XMLID_15_" class="st23" cx="44.8" cy="78.7" r="3.3"/><g class="st24"><path id="XMLID_14_" class="st25" d="M43.9 78.5c0 .9.7 1.6 1.6 1.6.9 0 1.6-.7 1.6-1.6 0-.9-.7-1.6-1.6-1.6-.8-.1-1.6.7-1.6 1.6z"/></g><path id="XMLID_13_" class="st26" d="M36.1 78.2s.8-.7 2.2-1.4c.7-.3 1.5-.7 2.5-.9.5-.1 1-.3 1.5-.3.5-.1 1-.1 1.5-.2h1.6c.5 0 1 .1 1.5.2s1 .2 1.4.3c.4.2.8.3 1.2.5.4.2.7.4.9.5.3.2.5.4.6.5l.5.5-.1.1-.6-.3c-.2-.1-.4-.2-.7-.3l-.9-.3c-.4-.1-.7-.2-1.2-.3-.4-.1-.9-.1-1.3-.2-.9-.1-1.9-.1-2.9 0-2 .1-3.9.6-5.3 1s-2.3.8-2.3.8l-.1-.2z"/><g><path id="XMLID_12_" class="st22" d="M96.6 82.8s-.3.2-.8.6c-.3.2-.6.4-.9.5-.4.2-.8.4-1.3.6-.5.2-1 .4-1.6.5-.6.2-1.2.2-1.8.4-.6.1-1.3.1-2 .1s-1.4 0-2.1-.1c-.7-.1-1.4-.1-2-.3-.7-.1-1.3-.2-1.9-.4-.6-.2-1.2-.3-1.8-.5-.6-.2-1.1-.4-1.6-.6-1-.3-1.8-.7-2.3-1-.6-.2-.9-.4-.9-.4l-.1.2s.2.3.7.8c.2.2.5.5.9.8.3.3.7.7 1.2.9.5.3 1 .7 1.5 1 .6.3 1.2.6 1.8.8.6.3 1.4.5 2.1.7.7.2 1.5.3 2.2.4.8.1 1.5 0 2.3 0 .4 0 .8-.1 1.1-.1.4-.1.7-.1 1.1-.2.7-.2 1.4-.4 2-.7.6-.2 1.2-.6 1.7-.9 1-.7 1.6-1.4 2.1-1.9.2-.3.3-.5.4-.7.1-.2.1-.3.1-.3l-.1-.2z"/><path id="XMLID_11_" class="st10" d="M96.6 78.3s-.8-1.3-2.5-2.8c-.4-.4-.9-.8-1.5-1.1-.5-.4-1.2-.7-1.8-1-.7-.3-1.4-.6-2.1-.8-.8-.2-1.5-.4-2.3-.4-.4 0-.8-.1-1.2 0-.4 0-.8.1-1.2.1-.8 0-1.5.3-2.2.5-.7.2-1.3.6-1.9.8-.6.3-1.1.7-1.5 1-.5.4-.9.6-1.2 1-.3.3-.6.6-.8.9-.4.5-.6.8-.6.8s.3-.2.9-.5c.3-.1.6-.3 1-.5s.9-.4 1.3-.6c.5-.2 1-.5 1.6-.6l.9-.3c.3-.1.6-.2.9-.2.6-.1 1.3-.3 1.9-.3.3 0 .7 0 1-.1.3 0 .7.1 1 .1.7 0 1.3.2 2 .3.6.2 1.3.3 1.9.5.6.2 1.2.4 1.8.7.6.2 1.1.5 1.6.7.9.5 1.8.9 2.3 1.2.4.4.7.6.7.6z"/><path id="XMLID_10_" class="st23" d="M81.9 78.7c0 1.8 1.5 3.3 3.3 3.3 1.8 0 3.3-1.5 3.3-3.3s-1.5-3.3-3.3-3.3c-1.9 0-3.3 1.5-3.3 3.3z"/><g class="st24"><path id="XMLID_9_" class="st25" d="M87.4 78.5c0 .9-.7 1.6-1.6 1.6-.9 0-1.6-.7-1.6-1.6 0-.9.7-1.6 1.6-1.6.8-.1 1.6.7 1.6 1.6z"/></g><path id="XMLID_8_" class="st26" d="M93.9 78.2s-.8-.7-2.2-1.4c-.7-.3-1.5-.7-2.5-.9-.5-.1-.9-.3-1.5-.3-.5-.1-1-.1-1.5-.2h-1.6c-.5 0-1 .1-1.5.2s-1 .2-1.4.3c-.4.2-.8.3-1.2.5s-.7.4-.9.5c-.3.2-.5.4-.6.5l-.5.5.1.1.6-.3c.2-.1.4-.2.7-.3l.9-.3c.3-.1.7-.2 1.2-.3.4-.1.9-.1 1.3-.2.9-.1 1.9-.1 2.9 0 2 .1 3.9.6 5.3 1s2.3.8 2.3.8l.1-.2z"/></g><path class="st26" d="M112.6 48.3c-1-8.7-5.3-17.8-10.8-22.2-2.1-3.7-3.6-5.5-4.9-6.4-2-6.3-6.7-14.8-18-17.1.7.6 1.3 1.1 2 1.6-1-.4-2.2-.8-3.4-1 2.1 1.9 3.6 3.7 4.8 5.4-3.3-3.7-8.2-6.9-15.2-7.4 4.9 3 7.9 5.9 9.6 7.9C72 3.7 66.3 1 60 1.1c2.3.9 4.2 1.9 5.7 2.8-.2-.1-.5-.2-.7-.3l-1.5-.9.5.5c-2.3-.9-4.9-1.5-8-1.6 1.3.7 2.5 1.4 3.6 2.1-1.4-.5-3-.9-4.7-1 .6.4 1.1.8 1.7 1.3C53 1.7 48.6.3 43.5.6c1.7.7 3.2 1.5 4.5 2.2h-.1l.5.3c.4.2.8.5 1.2.7-.5-.2-.9-.3-1.4-.5l-1-.3c-2.2-.6-4.5-.9-7.1-.8 1.4.6 2.7 1.3 3.9 1.9-.3.1-.6.3-.9.4-2-.6-4.2-1-6.6-1 1.5.8 2.9 1.7 4.1 2.5-.2.1-.4.3-.6.4-1.4-.3-2.9-.5-4.5-.6 1.8.7 4 2 6.5 4.2-.9 0-3-.1-5.7-.1l-.3.3c-2.7.4-6.2 1.3-10.6 3.2 2.4-.1 4.4-.1 6.1 0-2.2.5-4.7 1.2-7.7 2.3h3c-2.6 1.2-5.7 3.2-9.6 6.5 7.2-2.5 11.3-3.6 13.7-3.3-1.4.7-3.2 2.5-5.9 7.4.1-.1.2-.2.4-.3-5.6 4.4-10 13.5-11 22.2-5 11-1.2 32.7 1.3 44.2h2.2c-.1-.9-.2-1.8-.4-2.8-1.2-7.3 5.8-26.8 5.5-30 0-2.7 1-11.3 1-11.3.2-3.9 1-8.2 3.6-12.7.9-1.4 2.1-2.7 3.3-3.8.9-.8 3.5-3 5.5-4.2l1.2-.6c-.5 1.4-.9 2.8-1.2 4.1-1.6 5.2-.9 10.9-.8 11.2 0 0-.4-2.2 2.6-8.5-.2 2-.2 3.4-.1 3.6 0 0-.2-2.9 5.1-10.7.1-.2.2-.3.3-.4.1-.4.3-.7.6-.9 1.1-1.1 3.1-1.3 5.4-.5 2.1.4 4.6 1.7 6.9 3.7.2.1.7.6.8.7 1.6-.7 3.2-1.4 4.7-2 .5-.2-.6-2.9-.9-3.8.8 1.1 1.6 3.5 2.7 3.1 1.4-.5 2.7-.9 4-1.3 1.9-.5 3.7-1 5.4-1.3 0-.2-.1-.4-.1-.7-.1-.4-.4-1.3-.7-2.4h.2l1.4 2.8s.1.1.1.2c1.9-.3 3.7-.4 5.5-.4.1-.4.1-1-.2-1.6 0-.1-.1-.2-.1-.3h.1c.3.7.7 1.4.9 1.9 4.9.2 9.1 1.7 12.6 4.3.1-.1.1-.2.2-.4.1.1.2.4.4.7v1.3c2.5 1.7 4.8 3.8 6.5 6.5 2.5 4.6 3.3 8.8 3.5 12.7 0 0 .9 8.6.7 11.3-.3 3.2 6.5 22.7 5.4 30-.2 1-.3 2-.4 2.8h2.2c2.6-11.7 6.3-33.5 1.3-44.4zM47.9 6.5c-.1-.1-.2-.1-.3-.2.1.1.2.2.3.2z"/><path id="XMLID_5_" class="st27" d="M43.9.5s15.4.8 24 24.5c-4.1 1.1-2.5.8-2.5.8S57.3 5 43.9.5z"/><path id="XMLID_4_" class="st27" d="M55.1 2.9s11.2-.5 18 20.8c-1.4.3-3.1.6-3.1.6S65.7 10.9 55.1 2.9z"/><path id="XMLID_3_" class="st27" d="M67.5 1.2s14.1 2.4 20.9 23.6c-1.4-.6-3.9-1.3-3.9-1.3s-4-14.9-17-22.3z"/><g><path id="XMLID_2_" class="st26" d="M55.2 72.1c0-.3.7-5.1.7-5.3 0-.2-18-7.1-26.7 6.7 14-6 22.5-1.6 23.6-1.2 1.1.5 2.4.1 2.4-.2z"/><path id="XMLID_1_" class="st26" d="M73.4 73.5c-.1-.2-2.6-4.4-2.7-4.6-.1-.1 13.7-13.6 27.2-4.3-15.2.1-21.3 7.5-22.1 8.2-.8.8-2.2.9-2.4.7z"/></g></svg>