<svg id="Capa_1" xmlns="http://www.w3.org/2000/svg" viewBox="0 0 130 215"><style>.st0{fill:#EAC6B9;} .st1{fill:#F4C2B6;} .st2{opacity:0.2;fill:#917A6C;enable-background:new ;} .st3{fill:#DE9E8E;} .st4{opacity:0.1;fill:#FFFFFF;enable-background:new ;} .st5{fill:#351F17;} .st6{opacity:0.2;fill:url(#XMLID_35_);enable-background:new ;} .st7{opacity:0.2;fill:url(#XMLID_36_);enable-background:new ;} .st8{fill:#C5A89D;} .st9{fill:#D78578;} .st10{opacity:0.25;fill:#D78578;enable-background:new ;} .st11{fill:#442A19;} .st12{fill:url(#XMLID_37_);} .st13{fill:#E3B0A6;} .st14{fill:#3D3D3B;} .st15{fill:#BE1823;} .st16{fill:#222222;}</style><path id="XMLID_33_" class="st0" d="M90.1 172.7v-34.8H39.8v36c0 6.4 11.3 11.6 25.2 11.6 13.9 0 25.2-5.2 25.2-11.6 0-.4 0-.8-.1-1.2z"/><ellipse id="XMLID_32_" transform="rotate(76.343 21.628 94.22)" class="st1" cx="21.6" cy="94.2" rx="17.5" ry="5.5"/><path id="XMLID_31_" class="st2" d="M39.8 137.8V154c6 10 15.1 16.4 25.3 16.4 10 0 19-6.2 25-15.9v-16.7H39.8z"/><ellipse id="XMLID_30_" transform="rotate(-76.343 108.378 94.028)" class="st3" cx="108.4" cy="94" rx="17.5" ry="5.5"/><path id="XMLID_29_" class="st0" d="M86.2 20c-11.3-5.3-20-1-20-1h-.6l-.6-.3-.6.3h-.6s-8.7-4.3-20 1c-28.5 13.4-22.7 68.7-14 107.7s27 35.3 27 35.3h16.4s18.3 3.7 27-35.3 14.5-94.3-14-107.7z"/><path id="XMLID_28_" class="st4" d="M29 33.8l9.7 35.8s-5 1-5.5 5.7c-.8 7.3 3.8 29.8 3.8 29.8l4.3 33.1 23.7-.3V11.6L29 33.8z"/><path id="XMLID_27_" class="st4" d="M101 33.8l-9.7 35.8s5 1 5.5 5.7c.8 7.3-3.8 29.8-3.8 29.8l-4.3 33.1-23.7-.3V11.6l36 22.2z"/><path id="XMLID_26_" class="st5" d="M109.1 40.7c-3-15.1-11.5-23.5-11.5-23.5S87.8 2.4 73.4 5s-7.2-2.3-7.2-2.3-12.4 2.7-14.4 3.5S34.9 11.4 29 16.9c-7.5 7-10.1 21.6-10.7 24-.6 2.4-.5 13.1-.3 14.8.2 1.7 6.2 36 6.2 36l3.2-.8s.2-29.8 5.2-34.5c-.5-4.5-9.8-27.9 26.6-30.7 2.3.7 4.4 1.9 5.8 3.8.1-.1.1-.2.2-.3.1.1.1.2.2.3 1.5-2.1 4-3.3 6.6-4 38.8 1.9 27.7 30.9 27.7 30.9s9 19 6.2 35.5c.9.1 1.2.1 1.2.1s3.6-36.6 3.6-38.6c-.3-2-1.1-10.3-1.6-12.7z"/><radialGradient id="XMLID_35_" cx="26.306" cy="137.378" r="15.355" gradientTransform="matrix(.923 0 0 -.923 17.492 224.043)" gradientUnits="userSpaceOnUse"><stop offset="0" stop-color="#E30D18"/><stop offset=".118" stop-color="#E52931"/><stop offset=".343" stop-color="#E66060"/><stop offset=".552" stop-color="#E88B86"/><stop offset=".738" stop-color="#E9ABA3"/><stop offset=".893" stop-color="#EABFB3"/><stop offset="1" stop-color="#EAC6B9"/></radialGradient><circle id="XMLID_25_" class="st6" cx="41.8" cy="97.2" r="14.2"/><radialGradient id="XMLID_36_" cx="76.627" cy="137.378" r="15.355" gradientTransform="matrix(.923 0 0 -.923 17.492 224.043)" gradientUnits="userSpaceOnUse"><stop offset="0" stop-color="#E30D18"/><stop offset=".118" stop-color="#E52931"/><stop offset=".343" stop-color="#E66060"/><stop offset=".552" stop-color="#E88B86"/><stop offset=".738" stop-color="#E9ABA3"/><stop offset=".893" stop-color="#EABFB3"/><stop offset="1" stop-color="#EAC6B9"/></radialGradient><circle id="XMLID_24_" class="st7" cx="88.2" cy="97.2" r="14.2"/><path class="st8" d="M101.3 118.6c-8.1 25.9-14.8 15.2-14.8 15.2l1.8-20.2s-11.5-6.3-14.9-9c-1.1-.9-4.9.8-5.8.8-.8.1-1.6.2-2.4.2h-.1-.1c-.9 0-1.7-.1-2.4-.2-.9 0-4.7-1.6-5.8-.8-3.4 2.7-14.9 9-14.9 9l1.8 20.2s-6.7 10.7-14.8-15.2c-.4-1.2-.6-.6-.5 1.1.5 2.7 1.1 5.4 1.7 8 4.1 18.4 10.3 27.3 15.8 31.6 2 1.5 4.1 2.6 6.5 3.4 2.8.8 4.7.4 4.7.4h7.4c.2 0 .4-.1.6-.1h.2c.2.1.5.1.7.1h7.4s1.2.2 3.2-.1c3.1-.7 5.9-2.1 8.3-3.9 5.4-4.4 11.5-13.3 15.5-31.4.6-2.6 1.1-5.3 1.7-8-.2-1.8-.4-2.3-.8-1.1zm-17.2 6.8c-6.4 16.7-11.1 10.1-13.2 5.1 2.3-1.4 4.9-2.3 5.4-5.3-2.8.7-6.8 1.2-11.3 1.2h-.1-.1c-4.5 0-8.5-.5-11.3-1.2.5 3 3.2 3.9 5.4 5.3-2.1 5-6.8 11.7-13.2-5.1-1.8-4.8 0-7.8 0-7.8l11.1-6.2h.1c1.2 1.1 4.2 1.9 7.8 1.9 3.6 0 6.6-.8 7.8-1.9.1 0 .2-.1.2-.1l11.1 6.2c.3.1 2.1 3.1.3 7.9z"/><path id="XMLID_21_" class="st9" d="M50.4 119.9c0-.5.3-.9.8-.9s.9.3.9.8v.3c.4-.1.8-.3 1.3-.4 1.3-.3 3.1-.4 4.8-.2 1.7.2 3.4.7 4.6 1.3.6.3 1.1.6 1.5.9.3.2.5.3.5.4.1 0 .3-.2.5-.4.4-.2.9-.5 1.5-.8 1.3-.5 3-.9 4.7-1 1.7-.1 3.5.1 4.8.5.6.2 1.1.4 1.5.6 0-.1-.1-.1-.1-.2 0-.5.3-.9.8-.9s.9.3.9.8-.3.9-.8.9h-.1s-.9.1-2.2.2c-1.3.1-3 .2-4.7.3-1.7.1-3.5.1-4.8.2-1.2 0-2 0-2.1.1-.1 0-.9-.1-2.1-.2-1.3-.1-3-.3-4.7-.5-1.7-.2-3.4-.5-4.7-.6-1.3-.2-2.1-.3-2.1-.3-.3-.1-.7-.5-.7-.9z"/><path id="XMLID_20_" class="st10" d="M73.2 163s18.3 3.7 27-35.3 14.5-94.2-14-107.7c-11.3-5.3-20-1-20-1h-.6l-.6-.3V163h8.2z"/><path id="XMLID_19_" class="st11" d="M34.2 80.7s1.1-.8 3-1.8c.9-.5 2-1 3.2-1.4 1.2-.5 2.5-.9 3.9-1.3.7-.2 1.4-.3 2-.4.7-.1 1.3-.2 2-.3.6-.1 1.3-.1 1.9-.1h1.7c.5 0 1 .1 1.4.1.4 0 .8.1 1.1.2.6.1.9.2.9.2s-.3 0-.9.1c-.3 0-.7 0-1.1.1-.4 0-.9.1-1.4.1-.5.1-1 .1-1.6.2l-1.8.3c-.6.1-1.2.3-1.9.4-.6.2-1.3.3-1.9.5-.6.2-1.3.3-1.9.5-.6.2-1.3.3-1.9.5-1.2.4-2.3.7-3.3 1-2.1.7-3.4 1.1-3.4 1.1z"/><path id="XMLID_18_" class="st11" d="M49 77.8c.3 1.2-1.3 2.7-3.7 3.4-2.3.6-4.5.2-4.8-1-.3-1.2 1.3-2.7 3.7-3.4 2.3-.6 4.5-.2 4.8 1z"/><path id="XMLID_17_" class="st11" d="M95.8 80.7s-1.3-.4-3.3-1c-1-.3-2.1-.6-3.3-1-.6-.2-1.2-.3-1.9-.5-.6-.2-1.3-.3-1.9-.5-.6-.2-1.3-.3-1.9-.5-.6-.1-1.3-.3-1.9-.4l-1.8-.3c-.6-.1-1.1-.2-1.6-.2s-1-.1-1.4-.1c-.4 0-.8 0-1.1-.1-.6 0-.9-.1-.9-.1s.3-.1.9-.2c.3-.1.7-.2 1.1-.2.4 0 .9-.1 1.4-.1h1.7c.6 0 1.2.1 1.9.1.6.1 1.3.2 2 .3.7.1 1.3.3 2 .4 1.3.4 2.7.8 3.9 1.3 1.2.5 2.3 1 3.2 1.4 1.8.9 2.9 1.7 2.9 1.7z"/><path id="XMLID_16_" class="st11" d="M81.1 77.8c-.3 1.2 1.3 2.7 3.7 3.4s4.5.2 4.8-1c.3-1.2-1.3-2.7-3.7-3.4-2.4-.6-4.6-.2-4.8 1z"/><path id="XMLID_15_" class="st5" d="M33.1 67.3c3.1-.2 6.1-.2 8.8.1h.2c5.5 0 12.4.4 15.8 1.5-1-1.7-6.1-8.4-24.5-3.3-.5.2-.6 1.8-.3 1.7z"/><path id="XMLID_14_" class="st5" d="M87.9 67.4h.2c2.7-.2 5.7-.3 8.8-.1.3 0 .2-1.6-.3-1.7-18.4-5.1-23.5 1.5-24.5 3.3 3.4-1.1 10.3-1.5 15.8-1.5z"/><linearGradient id="XMLID_37_" gradientUnits="userSpaceOnUse" x1="65.001" y1="139.221" x2="65.001" y2="108.04" gradientTransform="matrix(1 0 0 -1 0 216)"><stop offset="0" stop-color="#E2B7B1"/><stop offset="1" stop-color="#D78578"/></linearGradient><path id="XMLID_13_" class="st12" d="M71.4 92.9S67 78.8 66.8 77.7c-.1-.6-.8-.8-1.4-.9h-.1-.5-.2c-.6.1-1.3.2-1.4.9-.2 1.1-4.6 15.2-4.6 15.2s-9.4 9.8-.2 11.1c1.8.5 2.3 1.3 2.8 2 .4 1.2 1.6 2 2.9 2h1.8c1.3 0 2.4-.8 2.9-2 .5-.7 1-1.4 2.8-2 9.1-1.3-.2-11.1-.2-11.1z"/><path id="XMLID_12_" class="st5" d="M69.4 105.1s1.1-4 3.1-3c1.5.7.4 1.8-.2 2-.5.2-1.1 0-1.1 0l-1.8 1z"/><path id="XMLID_11_" class="st5" d="M60.6 105.1s-1.1-4-3.1-3c-1.5.7-.4 1.8.2 2 .5.2 1.1 0 1.1 0l1.8 1z"/><path id="XMLID_10_" class="st13" d="M68 103.1c0 1.4-1.3 2.6-3 2.6-1.6 0-3-1.1-3-2.6v-1.7c0-1.4 1.3-2.6 3-2.6 1.6 0 3 1.1 3 2.6v1.7z"/><path class="st14" d="M106.8 70.6s-3.4.3-6.5-1.3c-3.3-1.6-23.1-1.6-28.4.5-.5.2-1 .4-1.5.5-1.5.7-3.4 1-5.4 1s-3.9-.3-5.4-.9c-.5-.1-1-.3-1.5-.5-5.3-2.1-25.1-2.1-28.4-.5-3.1 1.5-6.5 1.3-6.5 1.3v5c5.3.1 4.4 11.8 6.3 13.5 1.8 1.8 23.9 2.6 27.3-.8s4.3-13.7 7.8-14.3c.5-.1.5-.1 1.1 0 3.5.5 4.4 10.9 7.8 14.3s25.4 2.5 27.3.8c1.8-1.8 1-13.4 6.2-13.5-.2-1.8-.2-5.1-.2-5.1zm-47.7 5.1s-2.3 10.9-5 12.4-15.2 2.3-20.3.4-4.6-13.4-4.6-15.3 3.4-2.8 3.4-2.8 21.5-1 24.1.7c2.5 1.8 2.4 4.6 2.4 4.6zm37.2 12.9c-5.2 1.9-17.7 1.1-20.3-.4-2.7-1.5-5-12.4-5-12.4s-.2-2.8 2.4-4.5c2.6-1.7 24.1-.7 24.1-.7s3.4.9 3.4 2.8.6 13.2-4.6 15.2z"/><path id="XMLID_6_" class="st15" d="M95.8 160.6z"/><path id="XMLID_5_" class="st16" d="M27.9 198.7l5.5-7-11.8 2.5 5.5-15.3L1.2 189v25.4h47z"/><path id="XMLID_4_" class="st16" d="M103 179l5.5 15.2-11.8-2.5 5.5 7-20.3 15.7h46.9V189z"/><g><path id="XMLID_3_" class="st16" d="M62.3 204l-27.7-42.9-11.5 31.8 12.8-2.8-6.6 8.4 20.6 15.9h18.7z"/><path id="XMLID_2_" class="st16" d="M107 192.9L95.5 161l-30 46.3 4.3 7.1h10.5l20.5-15.9-6.6-8.4z"/></g><path id="XMLID_1_" class="st5" d="M58 .6c-1.4.9-23.1 12.3-23.1 12.3l4.4 6.2L58 .6z"/></svg>