<?xml version="1.0" encoding="utf-8"?>
<!-- Generator: Adobe Illustrator 19.0.0, SVG Export Plug-In . SVG Version: 6.00 Build 0)  -->
<svg version="1.1" id="Capa_1" xmlns="http://www.w3.org/2000/svg" xmlns:xlink="http://www.w3.org/1999/xlink" x="0px" y="0px"
	 viewBox="0 0 130 215" style="enable-background:new 0 0 130 215;" xml:space="preserve">
<style type="text/css">
	.st0{fill:#13354C;}
	.st1{fill:#F4C2B6;}
	.st2{fill:#D7B6AC;}
	.st3{opacity:0.1;fill:#D78578;}
	.st4{fill:#EFB6A9;}
	.st5{opacity:0.5;}
	.st6{fill:#F1BCAF;}
	.st7{opacity:0.1;fill:#F0D7D3;}
	.st8{opacity:0.83;}
	.st9{fill:#EEB8AB;}
	.st10{opacity:0.1;fill:#717070;}
	.st11{fill:#EDBDB0;}
	.st12{fill:#E4B2AA;}
	.st13{opacity:0.3;fill:url(#XMLID_3_);}
	.st14{opacity:0.8;}
	.st15{fill:#1E1E1C;}
	.st16{opacity:0.15;}
	.st17{fill:url(#XMLID_8_);}
	.st18{fill:#D3B3A9;}
	.st19{fill:#F1BEB0;}
	.st20{fill:#BB7D74;}
	.st21{fill:#15411E;}
	.st22{fill:#346841;}
	.st23{fill:#442A19;}
	.st24{opacity:0.7;fill:#E9B3A7;}
	.st25{fill:#6A5547;}
	.st26{fill:#E7B2A6;}
	.st27{fill:#EDB9AC;}
	.st28{fill:#CF978D;}
</style>
<g id="XMLID_1_">
	<polygon id="XMLID_67_" class="st0" points="0.9,215 0.9,192 37.6,170.3 92.1,170.3 129.1,191.7 129.1,215 	"/>
	<path id="XMLID_66_" class="st1" d="M106.6,45.1c-1.3-5.5-0.9-24.5-43.3-24.5c-42.3,0-42,19-43.3,24.5s-5.5,40.5-5.5,40.5
		s0.3,3.4,5,32.2c2.6,15.7,10.7,26.9,18,34v18.1h0c0,0,0,0.1,0,0.1c0,5.9,12.2,10.7,27.1,10.7c15,0,27.1-4.8,27.1-10.7
		c0,0,0-0.1,0-0.1h0v-21.1c6.5-7.1,12.9-17.3,15.1-31c4.8-28.8,5-32.2,5-32.2S107.8,50.6,106.6,45.1z"/>
	<path id="XMLID_65_" class="st2" d="M75.9,161.6c-4.3,2-12.5,2-12.5,2s-8.3,0-12.5-2c-1.5-0.7-7.2-3.9-13.3-9.8v9.3
		c6.2,6.1,11.9,9.3,13.5,10c4.3,2,12.5,2,12.5,2s8.3,0,12.5-2c1.8-0.8,8.8-4.8,15.9-12.5v-9.8C84.8,156.6,77.7,160.7,75.9,161.6z"/>
	<path id="XMLID_64_" class="st3" d="M106.6,45.1c-1.1-4.7-1-19.1-26.9-23.3v0c-0.5-0.1-1-0.2-1.4-0.2l0,0c-0.5-0.1-1-0.1-1.5-0.2
		c0,0,0,0,0,0c-0.5-0.1-1-0.1-1.5-0.2c0,0,0,0,0,0c-0.5-0.1-1-0.1-1.6-0.2c0,0,0,0,0,0c-0.5,0-1.1-0.1-1.6-0.1c0,0,0,0,0,0
		c-0.6,0-1.1-0.1-1.7-0.1c0,0,0,0-0.1,0c-0.6,0-1.1-0.1-1.7-0.1c0,0,0,0-0.1,0c-0.6,0-1.2,0-1.8-0.1c0,0,0,0-0.1,0
		c-0.6,0-1.2,0-1.8,0c0,0,0,0,0,0v160.1c0,0,0,0,0.1,0c15,0,27.1-4.8,27.1-10.7c0,0,0-0.1,0-0.1h0v-21.1c6.5-7.1,12.9-17.3,15.1-31
		c4.8-28.8,5-32.2,5-32.2S107.8,50.6,106.6,45.1z"/>
	<path id="XMLID_63_" class="st4" d="M106.8,106.3c1-8.7,3.4-16,5.8-18.3c-0.2-3.6-0.7-6.7-1.1-9.6c-0.2-1.4-0.4-26.1-0.5-28.5
		L99.5,30.1v54.6c0,3.8-2.1,7-5.1,8.7c0.1,1.5,0.1,3.1,0.1,4.6c0,10.7-1.4,20.8-3.9,29.8c3.2,4.6,5.2,10,5.6,15.8
		c-2.2,3-4.5,5.6-6.8,7.8c7.9-7.2,13.2-17.5,17.5-30.1C106.2,117.7,106.1,112.2,106.8,106.3z"/>
	<g id="XMLID_60_" class="st5">
		<path id="XMLID_62_" class="st6" d="M36.1,127.5c-2.3-8.7-3.7-18.5-3.7-28.9c0-1.6,0-3.1,0.1-4.6c-3-1.7-5.1-5-5.1-8.7V30.7
			L16,50.5c-0.1,2.3-0.3,27-0.5,28.5c-1.4,8.4-6.1,20.3,1.2,37c4.3,9.9,7,18.1,13.6,27.5C30.8,137.5,32.9,132.1,36.1,127.5z"/>
		<path id="XMLID_61_" class="st7" d="M33.8,147.7c1.4,1.7,3,3.3,4.6,4.8C36.9,151.1,35.3,149.5,33.8,147.7z"/>
	</g>
	<g id="XMLID_57_" class="st8">
		<path id="XMLID_59_" class="st9" d="M34.8,130c-0.8-2.6-1.8-5.2-3-7.9c-3.9-8.7-9.2-15.8-14.5-20c0,5.4,1.4,18.4,4.4,25.4
			c2.9,6.7,5.6,11.4,8.8,16C31,138.6,32.5,134,34.8,130z"/>
		<path id="XMLID_58_" class="st10" d="M32.9,146.6c1.1,1.5,2.3,3,3.6,4.6c0-0.2,0.1-0.4,0.1-0.6C35.3,149.4,34.1,148.1,32.9,146.6z
			"/>
	</g>
	<path id="XMLID_56_" class="st11" d="M96.2,143.7C95,127,80.8,113.8,63.4,113.8c-17.4,0-31.6,13.2-32.8,29.9
		c8.3,11.2,18.2,16.9,20.3,17.9c4.3,2,12.5,2,12.5,2s8.3,0,12.5-2C78,160.6,87.9,154.9,96.2,143.7z"/>
	
		<ellipse id="XMLID_55_" transform="matrix(0.9934 -0.1146 0.1146 0.9934 -12.1539 2.4064)" class="st1" cx="14.8" cy="106.9" rx="5.3" ry="19.9"/>
	
		<ellipse id="XMLID_54_" transform="matrix(-0.9934 -0.1146 0.1146 -0.9934 211.1852 225.9133)" class="st12" cx="112.1" cy="106.9" rx="5.3" ry="19.9"/>
	<linearGradient id="XMLID_3_" gradientUnits="userSpaceOnUse" x1="64.7217" y1="113.753" x2="64.7217" y2="74.9548">
		<stop  offset="0.2337" style="stop-color:#F4C2B6"/>
		<stop  offset="0.9966" style="stop-color:#FFFFFF"/>
	</linearGradient>
	<path id="XMLID_53_" class="st13" d="M74.4,103.8c-3.3-2.8-4-7.9-4.5-8.8s-1.3-16.2-2.2-18.4c-0.8-2.2-3-1.7-3-1.7s-2.2-0.5-3,1.7
		c-0.8,2.2-1.7,17.5-2.2,18.4s-1.1,6-4.5,8.8c-2.6,2.2-2.3,9.9,2.6,9.9c6.7,0,7,0,7,0s0.3,0,7,0C76.7,113.8,77,106,74.4,103.8z"/>
	<g id="XMLID_50_" class="st14">
		<path id="XMLID_52_" class="st15" d="M62.3,112.1c-0.4,0.2-5.1,0.3-6.3-0.6c-1.1-0.9-0.6-3.6,1.3-3.5c1.9,0.2,4.4,1.9,4.9,2.4
			C62.8,110.9,62.8,111.9,62.3,112.1z"/>
		<path id="XMLID_51_" class="st15" d="M67.1,112.1c0.4,0.2,5.1,0.3,6.3-0.6c1.1-0.9,0.6-3.6-1.3-3.5c-1.9,0.2-4.4,1.9-4.9,2.4
			C66.6,110.9,66.7,111.9,67.1,112.1z"/>
	</g>
	<g id="XMLID_48_" class="st16">
		<linearGradient id="XMLID_8_" gradientUnits="userSpaceOnUse" x1="61.1474" y1="100.3902" x2="68.1474" y2="100.3902">
			<stop  offset="0" style="stop-color:#F0D7D3"/>
			<stop  offset="1" style="stop-color:#EAA698"/>
		</linearGradient>
		<path id="XMLID_49_" class="st17" d="M64.6,107.4c-1.9,0-3.5-1.6-3.5-3.5l1.4-7.3c0-1.9,0.2-3.2,2.1-3.2c1.9,0,2.1,1.3,2.1,3.2
			l1.4,7.3C68.1,105.8,66.6,107.4,64.6,107.4z"/>
	</g>
	<path id="XMLID_47_" class="st18" d="M73,131.9c-1.3,0.6-2.4,1.4-3.3,1.9c-1.7,0.9-4.1,1.2-5.4,1.2c-1.3,0-4-0.4-5.4-1.2
		c-0.9-0.5-2-1.3-3.3-1.9c-1.6,0.9-2.6,2-2.6,3.3c0,2.8,5.1,7.1,11.3,7.1c6.3,0,11.3-4.3,11.3-7.1C75.6,133.9,74.6,132.8,73,131.9z"
		/>
	<g id="XMLID_28_">
		<g id="XMLID_38_">
			<path id="XMLID_46_" class="st19" d="M33.4,83.3c0,0,0.3,0.2,0.8,0.6c0.3,0.2,0.6,0.3,0.9,0.5c0.4,0.2,0.8,0.4,1.3,0.6
				c0.5,0.2,1,0.4,1.6,0.5c0.6,0.2,1.2,0.2,1.8,0.4c0.6,0.1,1.3,0.1,2,0.1c0.7,0,1.4,0,2.1-0.1c0.7-0.1,1.4-0.1,2-0.3
				c0.7-0.1,1.3-0.2,1.9-0.4c0.6-0.2,1.2-0.3,1.8-0.5c0.6-0.2,1.1-0.4,1.6-0.6c1-0.3,1.8-0.7,2.3-1c0.6-0.2,0.9-0.4,0.9-0.4l0.1,0.2
				c0,0-0.2,0.3-0.7,0.8c-0.2,0.2-0.5,0.5-0.9,0.8c-0.3,0.3-0.7,0.7-1.2,0.9c-0.5,0.3-1,0.7-1.5,1c-0.6,0.3-1.2,0.6-1.8,0.8
				c-0.6,0.3-1.4,0.5-2.1,0.7c-0.7,0.2-1.5,0.3-2.2,0.4c-0.8,0.1-1.5,0-2.3,0c-0.4,0-0.8-0.1-1.1-0.1c-0.4-0.1-0.7-0.1-1.1-0.2
				c-0.7-0.2-1.4-0.4-2-0.7c-0.6-0.2-1.2-0.6-1.7-0.9c-1-0.7-1.7-1.4-2.1-1.9c-0.2-0.3-0.3-0.5-0.4-0.7c-0.1-0.2-0.1-0.3-0.1-0.3
				L33.4,83.3z"/>
			<path id="XMLID_45_" class="st20" d="M33.4,78.8c0,0,0.8-1.3,2.5-2.8c0.4-0.4,0.9-0.8,1.5-1.1c0.5-0.4,1.2-0.7,1.8-1
				c0.7-0.3,1.4-0.6,2.1-0.8c0.8-0.2,1.5-0.4,2.3-0.4c0.4,0,0.8-0.1,1.2,0c0.4,0,0.8,0.1,1.2,0.1c0.8,0,1.5,0.3,2.2,0.5
				c0.7,0.2,1.3,0.6,1.9,0.8c0.6,0.3,1.1,0.7,1.5,1c0.5,0.3,0.9,0.6,1.2,1c0.3,0.3,0.6,0.6,0.8,0.9c0.4,0.5,0.6,0.8,0.6,0.8
				s-0.3-0.2-0.9-0.5c-0.3-0.2-0.6-0.3-1-0.5c-0.4-0.2-0.9-0.4-1.3-0.6c-0.5-0.2-1-0.5-1.6-0.6c-0.3-0.1-0.6-0.2-0.9-0.3
				c-0.3-0.1-0.6-0.2-0.9-0.2c-0.6-0.1-1.3-0.3-1.9-0.3c-0.3,0-0.7,0-1-0.1c-0.3,0-0.7,0.1-1,0.1c-0.7,0-1.3,0.2-2,0.3
				c-0.6,0.2-1.3,0.3-1.9,0.5c-0.6,0.2-1.2,0.4-1.8,0.7c-0.6,0.2-1.1,0.5-1.6,0.7c-0.9,0.5-1.7,0.9-2.3,1.2
				C33.7,78.6,33.4,78.8,33.4,78.8z"/>
			<g id="XMLID_40_">
				<circle id="XMLID_44_" class="st21" cx="44.8" cy="79.2" r="3.3"/>
				<g id="XMLID_41_">
					<path id="XMLID_78_" class="st22" d="M43.9,79c0,0.9,0.7,1.6,1.6,1.6c0.9,0,1.6-0.7,1.6-1.6c0-0.9-0.7-1.6-1.6-1.6
						C44.7,77.3,43.9,78.1,43.9,79z"/>
				</g>
			</g>
			<path id="XMLID_39_" class="st23" d="M36.1,78.7c0,0,0.8-0.7,2.2-1.4c0.7-0.3,1.5-0.7,2.5-0.9c0.5-0.1,1-0.3,1.5-0.3
				c0.5-0.1,1-0.1,1.5-0.2c0.5,0,1,0,1.6,0c0.5,0,1,0.1,1.5,0.2c0.5,0.1,1,0.2,1.4,0.3c0.4,0.2,0.8,0.3,1.2,0.5
				c0.4,0.2,0.7,0.4,0.9,0.5c0.3,0.2,0.5,0.4,0.6,0.5c0.3,0.3,0.5,0.5,0.5,0.5l-0.1,0.1c0,0-0.2-0.1-0.6-0.3
				c-0.2-0.1-0.4-0.2-0.7-0.3c-0.3-0.1-0.6-0.2-0.9-0.3c-0.3-0.1-0.7-0.2-1.2-0.3c-0.4-0.1-0.9-0.1-1.3-0.2c-0.9-0.1-1.9-0.1-2.9,0
				c-2,0.1-3.9,0.6-5.3,1c-1.4,0.4-2.3,0.8-2.3,0.8L36.1,78.7z"/>
		</g>
		<g id="XMLID_29_">
			<path id="XMLID_37_" class="st24" d="M96.6,83.3c0,0-0.3,0.2-0.8,0.6c-0.3,0.2-0.6,0.3-0.9,0.5c-0.4,0.2-0.8,0.4-1.3,0.6
				c-0.5,0.2-1,0.4-1.6,0.5c-0.6,0.2-1.2,0.2-1.8,0.4c-0.6,0.1-1.3,0.1-2,0.1c-0.7,0-1.4,0-2.1-0.1c-0.7-0.1-1.4-0.1-2-0.3
				c-0.7-0.1-1.3-0.2-1.9-0.4c-0.6-0.2-1.2-0.3-1.8-0.5c-0.6-0.2-1.1-0.4-1.6-0.6c-1-0.3-1.8-0.7-2.3-1c-0.6-0.2-0.9-0.4-0.9-0.4
				l-0.1,0.2c0,0,0.2,0.3,0.7,0.8c0.2,0.2,0.5,0.5,0.9,0.8c0.3,0.3,0.7,0.7,1.2,0.9c0.5,0.3,1,0.7,1.5,1c0.6,0.3,1.2,0.6,1.8,0.8
				c0.6,0.3,1.4,0.5,2.1,0.7c0.7,0.2,1.5,0.3,2.2,0.4c0.8,0.1,1.5,0,2.3,0c0.4,0,0.8-0.1,1.1-0.1c0.4-0.1,0.7-0.1,1.1-0.2
				c0.7-0.2,1.4-0.4,2-0.7c0.6-0.2,1.2-0.6,1.7-0.9c1-0.7,1.7-1.4,2.1-1.9c0.2-0.3,0.3-0.5,0.4-0.7c0.1-0.2,0.1-0.3,0.1-0.3
				L96.6,83.3z"/>
			<path id="XMLID_36_" class="st20" d="M96.6,78.8c0,0-0.8-1.3-2.5-2.8c-0.4-0.4-0.9-0.8-1.5-1.1c-0.5-0.4-1.2-0.7-1.8-1
				c-0.7-0.3-1.4-0.6-2.1-0.8c-0.8-0.2-1.5-0.4-2.3-0.4c-0.4,0-0.8-0.1-1.2,0c-0.4,0-0.8,0.1-1.2,0.1c-0.8,0-1.5,0.3-2.2,0.5
				c-0.7,0.2-1.3,0.6-1.9,0.8c-0.6,0.3-1.1,0.7-1.5,1c-0.5,0.3-0.9,0.6-1.2,1c-0.3,0.3-0.6,0.6-0.8,0.9c-0.4,0.5-0.7,0.8-0.7,0.8
				s0.3-0.2,0.9-0.5c0.3-0.2,0.6-0.3,1-0.5c0.4-0.2,0.9-0.4,1.3-0.6c0.5-0.2,1-0.5,1.6-0.6c0.3-0.1,0.6-0.2,0.9-0.3
				c0.3-0.1,0.6-0.2,0.9-0.2c0.6-0.1,1.3-0.3,1.9-0.3c0.3,0,0.7,0,1-0.1c0.3,0,0.7,0.1,1,0.1c0.7,0,1.3,0.2,2,0.3
				c0.6,0.2,1.3,0.3,1.9,0.5c0.6,0.2,1.2,0.4,1.8,0.7c0.6,0.2,1.1,0.5,1.6,0.7c0.9,0.5,1.8,0.9,2.3,1.2
				C96.3,78.6,96.6,78.8,96.6,78.8z"/>
			<g id="XMLID_31_">
				<path id="XMLID_35_" class="st21" d="M81.9,79.2c0,1.8,1.5,3.3,3.3,3.3c1.8,0,3.3-1.5,3.3-3.3c0-1.8-1.5-3.3-3.3-3.3
					C83.3,75.9,81.9,77.3,81.9,79.2z"/>
				<g id="XMLID_32_">
					<path id="XMLID_79_" class="st22" d="M87.4,79c0,0.9-0.7,1.6-1.6,1.6c-0.9,0-1.6-0.7-1.6-1.6c0-0.9,0.7-1.6,1.6-1.6
						C86.6,77.3,87.4,78.1,87.4,79z"/>
				</g>
			</g>
			<path id="XMLID_30_" class="st23" d="M93.9,78.7c0,0-0.8-0.7-2.2-1.4c-0.7-0.3-1.5-0.7-2.5-0.9c-0.5-0.1-0.9-0.3-1.5-0.3
				c-0.5-0.1-1-0.1-1.5-0.2c-0.5,0-1,0-1.6,0c-0.5,0-1,0.1-1.5,0.2c-0.5,0.1-1,0.2-1.4,0.3c-0.4,0.2-0.8,0.3-1.2,0.5
				c-0.4,0.2-0.7,0.4-0.9,0.5c-0.3,0.2-0.5,0.4-0.6,0.5c-0.3,0.3-0.5,0.5-0.5,0.5l0.1,0.1c0,0,0.2-0.1,0.6-0.3
				c0.2-0.1,0.4-0.2,0.7-0.3c0.3-0.1,0.6-0.2,0.9-0.3c0.3-0.1,0.7-0.2,1.2-0.3c0.4-0.1,0.9-0.1,1.3-0.2c0.9-0.1,1.9-0.1,2.9,0
				c2,0.1,3.9,0.6,5.3,1c1.4,0.4,2.3,0.8,2.3,0.8L93.9,78.7z"/>
		</g>
	</g>
	<path id="XMLID_25_" class="st23" d="M112.6,48.8c-1-8.7-5.3-17.8-10.8-22.2c-2.1-3.7-3.6-5.5-4.9-6.4C95,13.9,90.3,5.3,79,3
		c0.7,0.6,1.3,1.1,2,1.6c-1-0.4-2.2-0.8-3.4-1c2.1,1.9,3.6,3.7,4.8,5.4c-3.3-3.7-8.2-6.9-15.2-7.4c4.9,3,7.9,5.9,9.6,7.9
		c-4.8-5.4-10.4-8-16.8-8c2.3,0.9,4.2,1.9,5.7,2.9c-0.2-0.1-0.5-0.2-0.7-0.3c-0.5-0.3-1-0.6-1.5-0.9l0.5,0.5c-2.3-0.9-4.9-1.5-8-1.6
		c1.3,0.7,2.5,1.4,3.6,2.1c-1.4-0.5-3-0.9-4.7-1c0.6,0.4,1.1,0.8,1.7,1.3c-3.6-2.3-8-3.7-13.1-3.4c1.7,0.7,3.2,1.5,4.5,2.2
		c0,0,0,0-0.1,0l0.5,0.3c0,0,0,0,0,0c0.4,0.2,0.8,0.5,1.2,0.7c-0.5-0.2-0.9-0.3-1.4-0.5l-1-0.3c0,0,0,0,0,0
		c-2.2-0.6-4.5-0.9-7.1-0.8C41.7,3.4,43,4,44.2,4.7c-0.3,0.1-0.6,0.3-0.9,0.4c-2-0.6-4.2-1-6.6-1c1.5,0.8,2.9,1.7,4.2,2.5
		c-0.2,0.1-0.4,0.3-0.6,0.4c-1.4-0.3-2.9-0.5-4.5-0.6c1.8,0.7,4,2,6.5,4.2c-0.9,0-3-0.1-5.7-0.1c-0.1,0.1-0.2,0.2-0.3,0.3
		c-2.7,0.4-6.2,1.3-10.6,3.2c2.4-0.1,4.4-0.1,6.1,0c-2.2,0.5-4.7,1.2-7.7,2.3c1.1,0,2,0,3,0c-2.6,1.2-5.7,3.2-9.6,6.5
		c7.2-2.5,11.3-3.6,13.7-3.3c-1.4,0.7-3.2,2.5-5.9,7.4c0.1-0.1,0.2-0.2,0.4-0.3c-5.6,4.4-10,13.5-11,22.2c-5,11-1.2,32.7,1.3,44.2
		h2.2c-0.1-0.9-0.2-1.8-0.4-2.8c-1.2-7.3,5.8-26.8,5.5-30C23,57.3,24,48.8,24,48.8c0.2-3.9,1-8.2,3.6-12.7c0.9-1.4,2.1-2.7,3.3-3.8
		c0.9-0.8,3.5-3,5.5-4.2c0.4-0.2,0.8-0.4,1.2-0.6c0,0,0,0,0,0c-0.5,1.4-0.9,2.8-1.2,4.1c-1.6,5.2-0.9,10.9-0.8,11.2
		c0,0-0.4-2.2,2.6-8.5c-0.2,2-0.2,3.4-0.1,3.6c0,0-0.2-2.9,5.1-10.7c0.1-0.2,0.2-0.3,0.3-0.4c0,0,0,0,0,0c0.1-0.4,0.3-0.7,0.6-1
		c1.1-1.1,3.1-1.3,5.4-0.5c2.1,0.4,4.6,1.7,6.9,3.7c0.2,0.1,0.7,0.6,0.8,0.7c1.6-0.7,3.2-1.4,4.7-2c0.5-0.2-0.6-2.9-0.9-3.8
		c0.8,1.1,1.6,3.5,2.7,3.1c1.4-0.5,2.7-0.9,4-1.3c0,0,0,0,0,0c0,0,0,0,0,0c1.9-0.5,3.7-1,5.4-1.3c0-0.2-0.1-0.4-0.1-0.7
		c-0.1-0.4-0.4-1.3-0.7-2.4c0.1,0,0.1,0,0.2,0c0.8,1.6,1.4,2.8,1.4,2.8s0.1,0.1,0.1,0.2c1.9-0.3,3.7-0.4,5.5-0.4
		c0.1-0.4,0.1-1-0.2-1.6c0-0.1-0.1-0.2-0.1-0.3c0,0,0,0,0.1,0c0.3,0.7,0.7,1.4,0.9,1.9c4.9,0.2,9.1,1.7,12.6,4.3
		c0.1-0.1,0.1-0.2,0.2-0.4c0.1,0.1,0.2,0.4,0.4,0.7v1.3c2.5,1.7,4.8,3.8,6.5,6.5c2.5,4.6,3.3,8.8,3.5,12.7c0,0,0.9,8.6,0.7,11.3
		c-0.3,3.2,6.5,22.7,5.4,30c-0.2,1-0.3,2-0.4,2.8h2.2C113.9,81.4,117.6,59.7,112.6,48.8z M47.9,7c-0.1-0.1-0.2-0.1-0.3-0.2
		c0,0,0,0,0,0C47.7,6.9,47.8,6.9,47.9,7C47.9,7,47.9,7,47.9,7z"/>
	<path id="XMLID_24_" class="st25" d="M43.9,1c0,0,15.4,0.7,24,24.5c-4.1,1.1-2.5,0.8-2.5,0.8S57.3,5.5,43.9,1z"/>
	<path id="XMLID_23_" class="st25" d="M55.1,3.3c0,0,11.2-0.5,18,20.8c-1.4,0.4-3.1,0.7-3.1,0.7S65.7,11.4,55.1,3.3z"/>
	<path id="XMLID_22_" class="st25" d="M67.5,1.7c0,0,14.1,2.4,20.9,23.6c-1.4-0.6-3.9-1.3-3.9-1.3S80.5,9.1,67.5,1.7z"/>
	<g id="XMLID_16_">
		<g id="XMLID_17_">
			<path id="XMLID_20_" class="st23" d="M55.2,72.6c0-0.3,0.7-5.1,0.7-5.3c0-0.2-18-7.1-26.7,6.7c14-6,22.5-1.6,23.6-1.2
				C53.9,73.3,55.2,72.8,55.2,72.6z"/>
			<path id="XMLID_18_" class="st23" d="M73.4,74c-0.1-0.2-2.6-4.4-2.7-4.6c-0.1-0.1,13.7-13.6,27.2-4.3
				c-15.2,0.1-21.3,7.5-22.2,8.2C75,74.1,73.6,74.2,73.4,74z"/>
		</g>
	</g>
	<g id="XMLID_12_">
		<path id="XMLID_13_" class="st26" d="M92,130.2c0.8-2.6,1.8-5.2,3-7.9c3.9-8.7,9.2-15.8,14.5-20c0,5.4-1.4,18.4-4.4,25.4
			c-2.9,6.7-5.6,11.4-8.8,16C95.8,138.8,94.3,134.2,92,130.2z"/>
	</g>
	<g id="XMLID_9_">
		<path id="XMLID_11_" class="st27" d="M47.3,51.1c0,0,2.2-0.7,5.5-1.4c1.7-0.3,3.6-0.6,5.8-0.8c1.1-0.1,2.2-0.2,3.3-0.3
			c1.1-0.1,2.3-0.1,3.4-0.1c1.1,0,2.3,0.1,3.4,0.1c1.1,0.1,2.2,0.2,3.3,0.3c1.1,0.1,2.1,0.3,3.1,0.4c1,0.2,1.9,0.4,2.7,0.6
			c0.8,0.2,1.6,0.5,2.3,0.7c0.7,0.2,1.2,0.5,1.7,0.6c0.9,0.4,1.4,0.6,1.4,0.6s-0.6-0.1-1.6-0.2c-0.5-0.1-1.1-0.2-1.8-0.2
			c-0.7-0.1-1.5-0.1-2.3-0.2c-0.8,0-1.7-0.1-2.7-0.2c-1-0.1-2-0.1-3-0.1c-1,0-2.1,0-3.2-0.1c-1.1,0-2.2,0-3.3,0c-1.1,0-2.2,0-3.3,0
			c-1.1,0-2.2,0-3.2,0.1C56.6,51,54.7,51,53,51C49.6,51.1,47.3,51.1,47.3,51.1z"/>
	</g>
	<g id="XMLID_6_">
		<path id="XMLID_7_" class="st27" d="M47.3,46.6c0,0,2.2-0.7,5.5-1.4c1.7-0.3,3.6-0.6,5.8-0.8c1.1-0.1,2.2-0.2,3.3-0.3
			c1.1-0.1,2.3-0.1,3.4-0.1c1.1,0,2.3,0.1,3.4,0.1c1.1,0.1,2.2,0.2,3.3,0.3c1.1,0.1,2.1,0.3,3.1,0.4c1,0.2,1.9,0.4,2.7,0.6
			c0.8,0.2,1.6,0.5,2.3,0.7c0.7,0.2,1.2,0.5,1.7,0.6c0.9,0.4,1.4,0.6,1.4,0.6s-0.6-0.1-1.6-0.2c-0.5-0.1-1.1-0.2-1.8-0.2
			c-0.7-0.1-1.5-0.1-2.3-0.2c-0.8,0-1.7-0.1-2.7-0.2c-1-0.1-2-0.1-3-0.1c-1,0-2.1,0-3.2-0.1c-1.1,0-2.2,0-3.3,0c-1.1,0-2.2,0-3.3,0
			c-1.1,0-2.2,0-3.2,0.1c-2.1,0-4.1,0.1-5.8,0.1C49.6,46.6,47.3,46.6,47.3,46.6z"/>
	</g>
	<path id="XMLID_5_" class="st28" d="M64.4,128.6c3.5,0,6.7,0.4,9.2,1.1c2-0.2,3.5-0.4,3.5-0.4s-2.5-0.7-6.5-3.5
		c-1.1-0.9-3.5-1-4.7,0c-0.4,0.4-0.9,0.5-1.5,0.5h0v0c0,0,0,0,0,0c0,0,0,0,0,0l0,0c0,0,0,0,0,0c-0.6,0-1.1-0.1-1.5-0.5
		c-1.1-1-3.6-0.9-4.6,0c-4,2.8-6.5,3.5-6.5,3.5s1.5,0.2,3.5,0.4C57.7,129.1,60.9,128.6,64.4,128.6z"/>
	<path id="XMLID_4_" class="st20" d="M78.6,128.1c-0.2-0.2-0.4-0.1-0.6,0.1c0,0.1-0.8,1.3-2.2,1.3c-1,0-2.4-0.3-4-0.5
		c-2.6-0.4-5.6-0.9-7.3-0.6c-1.6-0.4-4.6,0.1-7.2,0.6c-1.5,0.3-3,0.5-4,0.5c-1.4,0.1-2.2-1.2-2.2-1.3c-0.1-0.2-0.4-0.3-0.6-0.1
		c-0.2,0.2-0.2,0.5-0.1,0.7c0,0.1,1,1.7,2.8,1.7c0,0,0.1,0,0.1,0c1,0,2.5-0.3,4-0.5c2.6-0.4,5.6-0.9,7.1-0.6c0,0,0.1,0,0.1,0
		c0,0,0.1,0,0.1,0c1.5-0.4,4.4,0.1,7.1,0.6c1.5,0.3,3,0.5,4,0.5c0,0,0.1,0,0.1,0c1.8,0,2.7-1.6,2.8-1.7
		C78.8,128.6,78.8,128.2,78.6,128.1z"/>
</g>
</svg>
